<mxfile host="65bd71144e">
    <diagram name="Page-1" id="nme9hxmJ2AIX2zbgO-GU">
        <mxGraphModel dx="1066" dy="619" grid="1" gridSize="10" guides="1" tooltips="1" connect="1" arrows="1" fold="1" page="1" pageScale="1" pageWidth="1100" pageHeight="850" math="0" shadow="0">
            <root>
                <mxCell id="0"/>
                <mxCell id="1" parent="0"/>
                <mxCell id="oUvbIGGsLhwBGj1-_vdv-1" value="&lt;font color=&quot;#000000&quot;&gt;Inicio&lt;/font&gt;" style="strokeWidth=2;html=1;shape=mxgraph.flowchart.start_2;whiteSpace=wrap;fillColor=#9DFF52;" parent="1" vertex="1">
                    <mxGeometry x="160" y="90" width="100" height="100" as="geometry"/>
                </mxCell>
                <mxCell id="oUvbIGGsLhwBGj1-_vdv-7" style="edgeStyle=orthogonalEdgeStyle;rounded=0;orthogonalLoop=1;jettySize=auto;html=1;exitX=0.5;exitY=1;exitDx=0;exitDy=0;" parent="1" source="oUvbIGGsLhwBGj1-_vdv-2" target="oUvbIGGsLhwBGj1-_vdv-6" edge="1">
                    <mxGeometry relative="1" as="geometry"/>
                </mxCell>
                <mxCell id="oUvbIGGsLhwBGj1-_vdv-2" value="Reposta = X" style="html=1;strokeWidth=2;shape=manualInput;whiteSpace=wrap;rounded=1;size=26;arcSize=11;" parent="1" vertex="1">
                    <mxGeometry x="500" y="240" width="100" height="60" as="geometry"/>
                </mxCell>
                <mxCell id="oUvbIGGsLhwBGj1-_vdv-3" value="&lt;font color=&quot;#000000&quot;&gt;Pergunta&lt;/font&gt;" style="strokeWidth=2;html=1;shape=mxgraph.flowchart.display;whiteSpace=wrap;fillColor=#e1d5e7;strokeColor=#9673a6;" parent="1" vertex="1">
                    <mxGeometry x="500" y="110" width="100" height="60" as="geometry"/>
                </mxCell>
                <mxCell id="oUvbIGGsLhwBGj1-_vdv-4" style="edgeStyle=orthogonalEdgeStyle;rounded=0;orthogonalLoop=1;jettySize=auto;html=1;exitX=1;exitY=0.5;exitDx=0;exitDy=0;exitPerimeter=0;entryX=0;entryY=0.5;entryDx=0;entryDy=0;entryPerimeter=0;" parent="1" source="oUvbIGGsLhwBGj1-_vdv-1" target="oUvbIGGsLhwBGj1-_vdv-3" edge="1">
                    <mxGeometry relative="1" as="geometry"/>
                </mxCell>
                <mxCell id="oUvbIGGsLhwBGj1-_vdv-5" style="edgeStyle=orthogonalEdgeStyle;rounded=0;orthogonalLoop=1;jettySize=auto;html=1;exitX=0.5;exitY=1;exitDx=0;exitDy=0;exitPerimeter=0;" parent="1" source="oUvbIGGsLhwBGj1-_vdv-3" edge="1">
                    <mxGeometry relative="1" as="geometry">
                        <mxPoint x="550" y="250" as="targetPoint"/>
                    </mxGeometry>
                </mxCell>
                <mxCell id="oUvbIGGsLhwBGj1-_vdv-9" style="edgeStyle=orthogonalEdgeStyle;rounded=0;orthogonalLoop=1;jettySize=auto;html=1;exitX=1;exitY=0.5;exitDx=0;exitDy=0;exitPerimeter=0;entryX=0;entryY=0.5;entryDx=0;entryDy=0;" parent="1" source="oUvbIGGsLhwBGj1-_vdv-6" target="oUvbIGGsLhwBGj1-_vdv-8" edge="1">
                    <mxGeometry relative="1" as="geometry"/>
                </mxCell>
                <mxCell id="oUvbIGGsLhwBGj1-_vdv-10" value="SIM" style="edgeLabel;html=1;align=center;verticalAlign=middle;resizable=0;points=[];" parent="oUvbIGGsLhwBGj1-_vdv-9" vertex="1" connectable="0">
                    <mxGeometry x="0.0164" y="-1" relative="1" as="geometry">
                        <mxPoint as="offset"/>
                    </mxGeometry>
                </mxCell>
                <mxCell id="oUvbIGGsLhwBGj1-_vdv-6" value="&lt;font color=&quot;#000000&quot;&gt;Resposta&lt;br&gt;Correta?&lt;/font&gt;" style="strokeWidth=2;html=1;shape=mxgraph.flowchart.decision;whiteSpace=wrap;fillColor=#ffe6cc;strokeColor=#d79b00;" parent="1" vertex="1">
                    <mxGeometry x="500" y="360" width="100" height="100" as="geometry"/>
                </mxCell>
                <mxCell id="oUvbIGGsLhwBGj1-_vdv-8" value="&lt;font color=&quot;#000000&quot;&gt;Pontuação= 1&lt;/font&gt;" style="rounded=1;whiteSpace=wrap;html=1;absoluteArcSize=1;arcSize=0;strokeWidth=2;fillColor=#dae8fc;strokeColor=#6c8ebf;" parent="1" vertex="1">
                    <mxGeometry x="680" y="360" width="100" height="100" as="geometry"/>
                </mxCell>
                <mxCell id="oUvbIGGsLhwBGj1-_vdv-12" value="FIM" style="strokeWidth=2;html=1;shape=mxgraph.flowchart.start_2;whiteSpace=wrap;fillColor=#FF6666;" parent="1" vertex="1">
                    <mxGeometry x="680" y="540" width="100" height="100" as="geometry"/>
                </mxCell>
                <mxCell id="oUvbIGGsLhwBGj1-_vdv-13" style="edgeStyle=orthogonalEdgeStyle;rounded=0;orthogonalLoop=1;jettySize=auto;html=1;exitX=0.5;exitY=1;exitDx=0;exitDy=0;entryX=0.5;entryY=0;entryDx=0;entryDy=0;entryPerimeter=0;" parent="1" source="oUvbIGGsLhwBGj1-_vdv-8" target="oUvbIGGsLhwBGj1-_vdv-12" edge="1">
                    <mxGeometry relative="1" as="geometry"/>
                </mxCell>
            </root>
        </mxGraphModel>
    </diagram>
</mxfile>